<?xml version="1.0" encoding="UTF-8"?>
<svg id="Layer_2" data-name="Layer 2" xmlns="http://www.w3.org/2000/svg" viewBox="0 0 786.3 796.53">
  <g id="Layer_1-2" data-name="Layer 1">
    <path d="M373.41.42c257.55-11.28,445.88,206.82,408.04,460.04-36.11,241.62-287.67,397.61-520.35,312.69C126.53,724.03,26.48,603.59,4.91,461.34-30.86,225.42,132.36,10.98,373.41.42ZM713.9,221.84c-34.99-63.46-86.92-116.42-151.25-150.24l-8.98-26.02C462.75,4.54,353.13.51,259.09,34.08c-6.31,2.25-18.76,6.74-24.16,9.84-7.18,4.11-7.92,23.44-12.75,28.25-1.97,1.96-11.94,6.35-15.46,8.54-56.49,35.11-102.71,81.92-134.06,140.94l-27.02,11.98C.53,334.55-.71,456.36,44.56,557.44l28,12.25c34.37,63.61,85.9,116.92,149.62,151.38l10.72,27.78c89.85,42.22,196.78,47.15,290.25,13.29,6.55-2.37,23.31-8.21,28.2-11.8,1.24-.91,1.62-1.04,2.51-2.49,3.88-6.42,6.03-18.27,9.03-25.47,63.47-34.75,116.61-88.05,150.27-152.23l28.53-12.47c44.4-100.98,44.43-221.89.01-322.88l-27.79-12.97h-.01ZM734.62,219.12c-36.47-71.54-95.41-130.54-166.99-166.99-.46.58,2.28,10.76,3.24,11.75,1.64,1.69,14.19,7.61,17.66,9.83,51.19,32.7,86.55,68.3,120.5,118.5,3.66,5.41,8.96,16.89,13.02,20.98,1.18,1.19,12.01,6.39,12.56,5.93h.01ZM52.62,219.12l12.43-6.06c34.4-61.99,85.91-114.86,148.53-148.47l4.03-11.46c-70.94,34.73-130.03,95.31-164.99,165.99h0ZM213.33,729.41c-2.06-2.41-18.88-11.32-23.23-14.26-45.6-30.87-80.94-66.87-110.89-113.11-3.64-5.61-10.03-19.65-13.56-23.44-1.37-1.47-11.47-6.02-12.02-5.47,33.61,72.17,93.58,129.46,162.5,167.99.57-2.49-1.3-9.96-2.8-11.71ZM732.62,574.14c-.59-.55-10.35,3.08-11.45,4.04-3.28,2.89-11.38,20.06-14.74,25.26-31.08,48.11-71.77,86.19-119.29,117.71-3.57,2.37-12.06,6.16-14.48,8.52-1.07,1.05-5.46,11.94-5.03,12.46,69.97-37.83,130.34-95.86,164.99-167.99h0Z"/>
    <path d="M553.87,77.88c65.41,33.19,119.47,86.01,153.3,151.2l28.26,12.74c41.59,98.42,41.18,210.6-.05,309.07l-28.29,11.21c-33.59,65.33-87.26,119.11-151.42,154.58l-9.96,26.8c-85.73,39.18-185.74,42.85-274.6,11.67-6.72-2.36-24.44-8.11-29.43-11.57-4.13-2.86-7.69-22.78-11.07-27.93-64.5-33.98-117.69-88.25-150.92-153.08l-29.07-12.17c-35.71-86.58-41.16-181.19-13-270.8,2.95-9.37,8.81-28.72,13.46-36.54.94-1.59,1.12-2.14,2.84-3.16,6.93-4.12,17.83-6.97,25.47-10.03,32.17-65.76,86.68-117.85,150.94-152.05l9.56-26.44c89.33-38.85,192.84-41.12,284.52-8.53,4.51,1.6,16.45,5.19,19.62,7.38,4.02,2.79,7.57,22.33,9.87,27.63l-.03.02h0ZM537.36,60.38c-1.87-1.98-26.45-10.08-30.98-11.52-84.48-26.68-177.08-23.71-258.52,11.51l-4.24,11.76c82.7-38.26,180.82-41.73,266.95-12.46,8.7,2.96,20.64,9.56,28.65,11.37,1.54.35,1.6.13,1.39-1.39-.18-1.31-2.61-8.59-3.25-9.27h0ZM366.41,52.42C211.03,60.83,83.43,180.78,56.09,332.1c-42.02,232.63,150.3,441.96,386.85,408.85,173.88-24.33,300.45-185.1,292.66-359.32-8.95-200.05-170.64-339.97-369.2-329.22h.01ZM72.62,244.14l-11.89,4.6c-36.76,83.83-39.76,181.9-10.82,268.6,1.68,5.04,7.03,21.86,9.65,25.08,1.76,2.17,8.54,2.52,11.05,4.7-5.15-15.46-11.87-30.33-16.49-46-18.49-62.77-19.77-133.02-3.43-196.42,5.32-20.65,12.82-41.35,21.92-60.57h.01ZM714.62,547.12l12.46-5.03c33.23-81.81,38.19-174.14,11.8-258.73-1.71-5.49-10.87-33.01-13.88-35.12-2.57-1.8-7.59-1.93-10.38-4.11,42.32,95.2,43.68,208.02,0,302.99ZM541.61,723.13c-77.9,37.21-169.07,42.58-251.51,17.02l-44.49-16.51c1.01,4,.91,8.91,4.75,11.25,8.39,5.14,32.23,12.47,42.5,15.5,79.34,23.4,168.51,17.77,244.17-15.35l4.58-11.91h0Z"/>
    <g>
      <path d="M529.16,419.82h70.55c3.2,2.61,1.51,7.35,1.85,11.05h-9.82v133.74h12.26c-.08,9.58.91,22.41-6.69,29.5-2.01,1.88-6.86,3.86-7.44,4.83-3.06,5.09,2.48,11.29-7.99,19-1.9,1.4-5.15,1.5-5.82,2.16-1.26,1.25-.74,7.65-2.66,9l-57.07,1.47-311.55-1.09c-3.02-1.03-1.9-7.03-3.58-9.3s-8.72-4.57-11.73-9.74c-2.33-4.01-2.36-12.06-2.78-12.57-.23-.27-4.3-.91-6.62-2.58-8.06-5.79-8.8-20.58-7.37-29.57l12.91-1.12v-133.74h-6.14v-11.04h69.94v-162.58c0-16.97,13.87-48.07,24.06-61.83,78.35-105.78,248.43-58.91,255.74,72.82l-.05,151.58h0ZM271.49,419.82v-158.89c0-9.98,9.44-32.77,14.51-41.93,56.98-102.95,213.83-66.31,221.12,51.69l-.06,149.14h11.06c-.82-54.92,1.69-110.1-1.38-164.89-25.2-146-244.65-138.1-256.34,10.84l.05,154.04h11.05,0ZM385.6,186.7c-37.73.97-71.01,26.88-83.46,61.93-1.15,3.23-4.88,14.66-4.88,17.21v153.99h88.34v-233.13ZM392.96,419.82h86.5c.69-.51,1.18-1.03,1.49-1.84s.27-14.84.31-17.15c.19-9.35-.99-19.2-.92-28.55.43-59.86,16.09-137.63-45.29-173.08-13.51-7.81-26.68-10.68-42.09-12.51v233.13h0ZM581.92,430.87H195.42c-.22,3.92-.68,7.68,4.24,7.42l376.73.04,5-1.25.54-6.21h-.01ZM195.42,448.04v17.18c4.96-6.42,7.9-13.24,15.96-16.56l-15.96-.61h0ZM256.77,448.04h-19.63c5.26,4.35,10.27,8.26,14.71,13.5,0-3.13.78-6.71,2.1-9.53,1.02-2.19,3.67-.57,2.82-3.96h0ZM329.16,448.04h-47.85c3.33,4.65,4.79,9.48,3.65,15.32-1.32,6.7-13.84,11.93-15.75,4.66-2.13-8.12,7.07-6.22,7.16-8.32-2.15-5.67-6.81-4.96-11.96-3.48-6,5.7-2.52,17.12,5.15,20.13,14.11,5.53,26.03-8.71,38.33-13.38l21.26-14.93h0ZM384.38,448.04h-22.09l13.55,10.37,8.53,11.71v-22.09h.01ZM417.5,448.04h-23.31v22.09l10.39-13.53,12.92-8.55h0ZM496.03,448.04h-46.63l10.94,6.85c8.26,6.2,19.47,14.57,28.71,19.14,11.25,5.56,26.99,3.5,25.94-11.44-.9-12.83-17.9-5.5-14.05-1.06l5.56-.05c3.42,15.05-15.57,11.09-15.43-1.81.05-4.87,4.16-7.35,4.95-11.63h0ZM538.98,448.04h-20.86c2.89,3.84,6.74,7.12,7.38,12.27,3.03-2.54,4.87-5.99,7.95-8.59,1.95-1.64,5.03-1.62,5.53-3.67h0ZM581.92,448.04l-15.96.61c8.35,2.85,11.11,10.26,15.96,16.56v-17.18h0ZM195.42,493.44v34.36c7.52-10.33,19.46-15.66,30.58-6.65,13.28,10.76-.77,32.15-9.05,22.55-2.87-3.33-2.62-7.51,1.31-9.71,6.54,5.3,5.85-2.25,2.42-5.06-9.71-7.94-24.22,6.06-13.01,19.14,15.23,17.79,34.05,1.92,40.25-15.03,6.79-18.55,5.85-59.78-11.39-72.73-23.84-17.92-43.48,19.01-28.23,31.91,9.11,7.71,23.58.4,21.46-10.39-.26-1.34-2.08-4.24-3.05-4.32-2.95-.22-.42,5.85-.6,6.1-1.47,2.05-9.64,2.56-10.83-3.36-3.05-15.21,20.88-13.98,23.01-.86,3.03,18.69-17.37,30.94-33.48,22.45l-9.39-8.41h0ZM379.46,486.07c-5.39-22.97-27.19-39.24-50.22-26.29-10.86,6.1-19.05,20.79-11.68,32.38,7.75,12.18,27.39,13.7,31.44-1.61,3.07-11.6-9.81-16.98-12.47-11.19-1.27,2.76,4.84,1.23,5.96,5.14,1.71,5.98-5.17,7.66-10.01,6.24-8.75-2.58-6.73-24.71,10.79-23.1,17.52,1.61,19.62,25.49,9.19,36.24-2.31,2.38-5.83,3-7.34,5.52,17.87.11,28.33,27.45,10.73,34.66-17.61,7.22-20.9-18.91-7.84-14.87,4.79,1.48-2.9,7.1,1.4,7.18,1.25.03,4.49-3.18,5.03-4.83,4.01-12.38-20.37-17.95-25.55-2.18-3.93,11.97,8.06,24.06,19.73,24.73,20,1.14,32.23-23.55,32.1-41.01l-.02-9.82h0v-8.59h.01l-1.24-8.59h-.01ZM440.81,477.5c-10.42-2.16-14.16,8.33-9.64,16.4,11.3,20.19,45.44-2.74,27.47-26.25-18.54-24.24-54.79-10-58.3,18.43h0l-2.46,8.59.02,8.59-.02,9.82c-.99,22.72,23.44,55.2,46.05,34.38,19-17.49-8.17-38.63-18.51-23.42-2.81,4.13-2.93,10.1,2.52,11.14,4.17.79-.98-3.86,1.8-5.58,10.5-6.51,13.86,18.97-5.18,15.1-18.56-3.77-11.51-35.47,7.69-35.32-5.56-4.79-11.12-10.13-12.15-17.88-3.83-28.81,32.58-30.68,30.67-9.69-.78,8.53-15.96,13.48-14.87,2.48.45-4.56,5.6-2.71,4.94-6.79h-.03ZM581.92,527.8v-38.04l-9.21,11.04c-14.48,12.83-40.01-3.71-34.01-21.75,2.49-7.5,11.83-12.93,19.16-8.77,9.7,5.5,1.05,19.81-5.45,15.27-3.21-2.25,1.72-6.06-1.78-8.03-11.72,11.25,8.47,26.38,18.84,13.9,14.43-17.36-7.72-47.65-28.65-32.33-18.99,13.91-17.38,65.01-5.77,83.06,8.15,12.67,27.59,19.3,36.84,4.46,11.83-18.99-17.32-26.24-16.96-13.22l1.83,2.99c2.27-5.7,9.1.4,4.87,6.09-9.16,12.34-23.62-9.05-10.28-21.31,9.88-9.09,23.83-3.05,30.56,6.63h.01ZM331.62,510.63c-17.72-.29-30.37-18.75-25.78-35.59-14.67,9.61-31.07,19.45-46.6,4.91l2.45,29.45c20.08-20.57,47.9-7.08,58.28,15.95,2.38-5.01,4.61-10.92,10.89-12.18l.77-2.54h-.01ZM518.1,481.17c-15.81,12.17-31.39,3.99-45.37-6.14,4.43,16.96-8.82,34.21-25.77,36.19,5.6,3.28,9.03,8.33,11.65,14.13,9.79-24.36,38.58-36.51,58.27-14.74l1.23-29.45h-.01ZM289.9,560.93h44.17c-2.34-2.83-5.44-4.61-7.99-7.35-1.76-1.9-4.34-7.32-5.51-7.99-2-1.14-5.2-.12-6-.74-.5-.39-1.97-10-2.86-12.48-6.56-18.29-26.82-33.78-42.64-14.96-12.6,14.99-6.68,38.87,14.76,34.39,18.28-3.82,7.95-35.4-3.75-16.64,8.44-2.93,8.75,10.73-.5,9.83-14.36-1.41-7.91-28.11,10.06-23.72,13.31,3.25,16.66,21.71,8.83,31.69l-8.58,7.98h.01ZM443.27,560.93h45.4l-8.58-6.75c-17.4-22.15,13.93-47.67,26.28-25.05,4.56,8.34-6.74,21.73-13.84,12.58l1.06-9,4.89,1.22c-11.81-12.47-20.06,8.94-7.97,17.19,17.74,12.11,35.53-16.9,17.84-35.02-14-14.34-34.32-4.25-40.79,12.08-1.48,3.73-2.43,13.78-4.04,15.59-1.37,1.55-4.28,1.02-6.22,2.37-1.83,1.27-3.53,6-5.45,8.04-2.4,2.55-6.7,3.92-8.58,6.75h0ZM384.38,564.61v-24.54l-14.11,17.18-10.42,4.92c-.35.46,1.61,2.44,1.84,2.44h22.7-.01ZM415.05,564.61l.67-3.7-7.15-4.53-13.15-15.08v23.31h19.63,0ZM229.78,564.61h41.1l1.25-2.46c-9.57-3.01-13.73-8.86-18.42-17.14l-13.49,14.71-10.44,4.9h0ZM505.85,564.61h41.72l-12.85-7.39-9.85-12.21c-4.44,8.78-9.5,11.19-16.85,16.25-1.45,1-2.66.97-2.17,3.35h0ZM195.42,564.61h17.18l-9.17-6.17-8-8.55v14.72h0ZM581.92,564.61v-13.5l-6.78,7.33-10.4,6.16h17.18ZM592.97,575.65l-409.81-1.22c-.37,6.16-.95,12.58,6.67,13.56l399.42-.71c4.48-2.68,3.94-6.95,3.71-11.63h0ZM579.47,597.74H197.88v8.59c2.67-.37,5.38.52,7.98.54,121.13.58,244.9-4.34,365.69-.6,2.13.07,4.06.59,6.02,1.32l1.89-9.84h0Z"/>
      <g>
        <path d="M378.24,195.29v50.31h-66.26c11.41-26.84,37.36-46.46,66.26-50.31Z"/>
        <path d="M378.24,320.44c-3.12,3.97,1.24,8.49-1.84,11.04h-70.55v-11.04h72.39,0Z"/>
        <rect x="305.85" y="385.47" width="71.17" height="11.04"/>
        <rect x="305.85" y="401.42" width="71.17" height="11.04"/>
        <rect x="305.85" y="336.39" width="71.17" height="11.04"/>
        <rect x="305.85" y="287.31" width="71.17" height="11.04"/>
        <polygon points="378.24 254.18 378.24 265.22 307.69 265.22 306.03 263.42 308.3 254.18 378.24 254.18"/>
        <polygon points="377.01 304.49 378.24 314.3 305.85 314.3 305.85 304.49 377.01 304.49"/>
        <polygon points="305.85 363.38 305.86 352.34 377 352.34 377.01 363.38 305.85 363.38"/>
        <path d="M378.24,271.36v9.82h-72.39v-9.82h72.39,0Z"/>
        <rect x="305.85" y="369.52" width="71.17" height="9.82"/>
        <path d="M466.58,245.59h-67.48v-49.09c29.32,2.11,55.76,22.49,67.48,49.09Z"/>
        <path d="M472.72,320.44v11.04h-72.39l-1.19-10.45,1.8-1.78c.47.02.86,1.19,1.23,1.19h70.55Z"/>
        <polygon points="472.72 336.39 472.72 347.43 400.33 347.43 399.1 336.39 472.72 336.39"/>
        <rect x="400.33" y="287.31" width="72.39" height="11.04"/>
        <rect x="400.33" y="385.47" width="72.39" height="11.04"/>
        <rect x="400.33" y="401.42" width="72.39" height="11.04"/>
        <path d="M471.49,265.22h-72.39v-11.04h69.32c2.59,2.72,2.87,7.36,3.07,11.04Z"/>
        <rect x="399.1" y="271.36" width="73.62" height="9.82"/>
        <polygon points="400.33 363.38 400.34 352.34 472.72 353.56 472.72 363.38 400.33 363.38"/>
        <path d="M472.72,369.52v9.82h-70.55c-.26,0-1.41,1.84-1.83,1.23l-1.24-11.04h73.62,0Z"/>
        <polygon points="472.72 304.49 472.72 314.3 400.33 314.3 399.1 304.49 472.72 304.49"/>
      </g>
    </g>
  </g>
</svg>